# xmcd
#
# Track frame offsets: 
#        300
#        21314
#        53624
#        73831
#        114286
#        139669
#        167492
#        191524
#        208551
#        240577
#        264016
#        296209
#
# Disc length: 4495 seconds
#
# Revision: 2
# Processed by: cddbd v1.5.2PL0 Copyright (c) Steve Scherf et al.
# Submitted via: ExactAudioCopy v1.0b1
#
DISCID=a8118b0c
DTITLE=Otis Rush and Friends - Live at Montreaux 1986
DYEAR=2006
DGENRE=Chicago Blues
TTITLE0=Tops
TTITLE1=I Wonder Why (Will My Man Be Home Tonight)
TTITLE2=Lonely Man
TTITLE3=Gambler's Blues
TTITLE4=Natural Ball
TTITLE5=Right Place, Wrong Time
TTITLE6=Mean Old World
TTITLE7=You Don't Love Me
TTITLE8=Crosscut Saw
TTITLE9=Double Trouble
TTITLE10=All Your Love (I Miss Loving)
TTITLE11=Everyday I Have The Blues
EXTD=
EXTT0=
EXTT1=
EXTT2=
EXTT3=
EXTT4=
EXTT5=
EXTT6=
EXTT7=
EXTT8=
EXTT9=
EXTT10=
EXTT11=
PLAYORDER=
